<?xml version="1.0" standalone="no"?>
<!DOCTYPE svg PUBLIC "-//W3C//DTD SVG 20010904//EN"
 "http://www.w3.org/TR/2001/REC-SVG-20010904/DTD/svg10.dtd">
<svg version="1.0" xmlns="http://www.w3.org/2000/svg"
 width="617.000000pt" height="74.000000pt" viewBox="0 0 617.000000 74.000000"
 preserveAspectRatio="xMidYMid meet">

<g transform="translate(0.000000,74.000000) scale(0.100000,-0.100000)"
fill="#000000" stroke="none">
<path d="M0 370 l0 -370 3085 0 3085 0 0 370 0 370 -3085 0 -3085 0 0 -370z
m5874 298 c35 -15 40 -39 22 -101 -8 -28 -33 -123 -56 -210 -51 -197 -63 -229
-99 -250 -27 -16 -137 -17 -1542 -17 -1393 0 -1514 1 -1531 17 -24 22 -23 37
11 162 16 58 44 160 61 226 35 132 41 144 85 168 27 15 167 16 1527 17 1109 0
1504 -3 1522 -12z m-3488 -23 c8 -13 13 -28 10 -33 -3 -5 -21 -69 -40 -143
-88 -332 -87 -331 -124 -359 -24 -20 -45 -20 -1007 -20 -976 0 -982 0 -1000
20 -17 19 -18 26 -6 83 7 34 32 132 56 217 24 85 46 170 50 187 4 18 18 42 32
53 25 20 39 20 1019 20 l994 0 16 -25z"/>
<path d="M2974 493 c-4 -16 -17 -71 -30 -123 -31 -124 -31 -132 3 -128 19 2
29 10 33 28 5 21 12 25 47 26 48 1 59 -4 64 -31 3 -13 14 -21 33 -23 26 -3 28
-1 23 20 -4 13 -19 76 -34 140 l-28 118 -52 0 c-49 0 -53 -2 -59 -27z m85 -75
c17 -73 16 -78 -25 -78 l-36 0 7 58 c7 57 22 90 35 75 4 -4 12 -29 19 -55z"/>
<path d="M3150 500 c0 -16 7 -20 35 -20 l34 0 3 -117 3 -118 28 -3 27 -3 0
120 0 121 35 0 c28 0 35 4 35 20 0 19 -7 20 -100 20 -93 0 -100 -1 -100 -20z"/>
<path d="M3370 501 c0 -16 8 -20 38 -23 l37 -3 3 -117 3 -118 24 0 25 0 0 120
0 120 35 0 c28 0 35 4 35 20 0 19 -7 20 -100 20 -92 0 -100 -1 -100 -19z"/>
<path d="M3610 380 l0 -141 88 3 c82 3 87 4 90 26 3 21 0 22 -62 22 l-66 0 0
35 0 35 50 0 c47 0 50 2 50 25 0 23 -3 25 -50 25 l-50 0 0 35 0 35 65 0 c58 0
65 2 65 20 0 19 -7 20 -90 20 l-90 0 0 -140z"/>
<path d="M3840 380 l0 -141 28 3 27 3 2 103 c0 57 3 105 5 107 2 2 14 -41 27
-96 l24 -100 31 3 c22 2 32 9 34 23 6 36 45 160 54 169 4 6 8 -40 8 -101 0
-108 0 -110 23 -109 22 1 22 4 25 139 l3 137 -50 0 -49 0 -17 -77 c-31 -139
-29 -138 -56 -28 l-24 100 -47 3 -48 3 0 -141z"/>
<path d="M4192 383 l3 -138 27 -3 c25 -3 27 0 30 40 l3 43 49 6 c68 7 90 35
84 107 -6 71 -22 81 -121 82 l-78 0 3 -137z m132 81 c18 -18 20 -47 6 -75 -8
-13 -21 -19 -45 -19 l-35 0 0 48 c0 27 3 52 7 55 12 13 51 7 67 -9z"/>
<path d="M4410 500 c0 -16 7 -20 35 -20 l34 0 3 -117 3 -118 27 -3 27 -3 3
118 3 118 38 3 c29 3 37 7 37 23 0 18 -8 19 -105 19 -98 0 -105 -1 -105 -20z"/>
<path d="M720 380 l0 -140 75 0 c73 0 75 1 75 24 0 23 -5 25 -47 28 l-48 3 -3
113 c-3 112 -3 112 -27 112 l-25 0 0 -140z"/>
<path d="M910 380 l0 -141 28 3 27 3 0 135 0 135 -27 3 -28 3 0 -141z"/>
<path d="M1030 380 l0 -140 24 0 c23 0 25 4 28 53 l3 52 48 0 c42 0 47 2 47
23 0 20 -5 22 -51 22 l-50 0 3 43 3 42 63 3 c54 3 62 6 62 22 0 18 -7 20 -90
20 l-90 0 0 -140z"/>
<path d="M1223 505 c-8 -22 2 -29 40 -29 l32 -1 3 -117 c3 -118 3 -118 27
-118 24 0 24 0 27 118 l3 117 33 0 c27 0 32 4 32 22 0 22 -3 23 -95 23 -77 0
-97 -3 -102 -15z"/>
<path d="M1462 383 l3 -138 88 -3 87 -3 0 26 c0 24 -2 25 -60 25 l-60 0 0 35
0 35 51 0 c47 0 50 2 47 23 -3 19 -10 22 -50 25 -47 3 -48 4 -48 38 l0 34 60
0 c53 0 60 2 60 20 0 19 -7 20 -90 20 l-91 0 3 -137z"/>
<path d="M1692 383 l3 -138 25 0 c23 0 25 4 28 48 3 45 5 48 29 45 20 -2 29
-13 42 -47 13 -36 21 -45 44 -48 32 -4 32 -2 10 62 -11 34 -13 50 -5 53 22 7
34 69 22 107 -15 47 -34 55 -125 55 l-76 0 3 -137z m129 87 c12 -7 19 -21 19
-40 0 -32 -23 -50 -64 -50 -24 0 -26 3 -26 50 0 47 2 50 26 50 14 0 34 -5 45
-10z"/>
</g>
</svg>
